<svg width="48" height="48" viewBox="0 0 48 48" fill="none" xmlns="http://www.w3.org/2000/svg">
<g id="adicionar_bttn">
<rect width="48" height="48" fill="#57FB88"/>
<rect x="0.5" y="0.5" width="47" height="47" stroke="black" stroke-opacity="0.4"/>
<path id="Vector" d="M34.6112 27.1388V21.8608H29.3333V19.0833H34.6112V13.8054H37.3888V19.0833H42.6667V21.8608H37.3888V27.1388H34.6112ZM19.3333 23.7775C17.5 23.7775 15.9768 23.1711 14.7638 21.9583C13.551 20.7453 12.9446 19.2221 12.9446 17.3888C12.9446 15.5554 13.551 14.0322 14.7638 12.8192C15.9768 11.6064 17.5 11 19.3333 11C21.1667 11 22.6899 11.6064 23.9029 12.8192C25.1157 14.0322 25.7221 15.5554 25.7221 17.3888C25.7221 19.2221 25.1157 20.7453 23.9029 21.9583C22.6899 23.1711 21.1667 23.7775 19.3333 23.7775ZM6 37.1388V32.9721C6 32.009 6.24306 31.1317 6.72917 30.34C7.21528 29.5483 7.89819 28.9535 8.77792 28.5554C10.7407 27.6574 12.5586 27.0115 14.2317 26.6179C15.9044 26.2243 17.6035 26.0275 19.3288 26.0275C21.054 26.0275 22.75 26.2243 24.4167 26.6179C26.0833 27.0115 27.8982 27.6574 29.8612 28.5554C30.7407 28.9721 31.4282 29.5717 31.9237 30.3542C32.419 31.1364 32.6667 32.009 32.6667 32.9721V37.1388H6ZM8.77792 34.3608H29.8888V32.9721C29.8888 32.574 29.78 32.199 29.5625 31.8471C29.345 31.4951 29.0557 31.2313 28.6946 31.0554C26.8796 30.1943 25.2638 29.604 23.8471 29.2846C22.4304 28.9651 20.9258 28.8054 19.3333 28.8054C17.7408 28.8054 16.2315 28.9651 14.8054 29.2846C13.3796 29.604 11.7593 30.1943 9.94458 31.0554C9.58347 31.2313 9.29875 31.4951 9.09042 31.8471C8.88208 32.199 8.77792 32.574 8.77792 32.9721V34.3608ZM19.3333 21C20.3611 21 21.2199 20.655 21.9096 19.965C22.5996 19.2753 22.9446 18.4165 22.9446 17.3888C22.9446 16.361 22.5996 15.5022 21.9096 14.8125C21.2199 14.1225 20.3611 13.7775 19.3333 13.7775C18.3056 13.7775 17.4468 14.1225 16.7571 14.8125C16.0671 15.5022 15.7221 16.361 15.7221 17.3888C15.7221 18.4165 16.0671 19.2753 16.7571 19.965C17.4468 20.655 18.3056 21 19.3333 21Z" fill="#434343"/>
</g>
</svg>
