<svg width="48" height="48" viewBox="0 0 48 48" fill="none" xmlns="http://www.w3.org/2000/svg">
<g id="adicionar_button">
<rect width="48" height="48" fill="#57FB88"/>
<rect x="0.5" y="0.5" width="47" height="47" stroke="black" stroke-opacity="0.4"/>
<path id="icon" d="M22.3333 32.3333H25.6667V25.6667H32.3333V22.3333H25.6667V15.6667H22.3333V22.3333H15.6667V25.6667H22.3333V32.3333ZM24 40.6667C21.6945 40.6667 19.5278 40.2361 17.5 39.375C15.4722 38.4861 13.7083 37.2917 12.2083 35.7917C10.7083 34.2917 9.5139 32.5278 8.62501 30.5C7.7639 28.4722 7.33334 26.3055 7.33334 24C7.33334 21.6944 7.7639 19.5278 8.62501 17.5C9.5139 15.4722 10.7083 13.7083 12.2083 12.2083C13.7083 10.7083 15.4722 9.52777 17.5 8.66666C19.5278 7.77777 21.6945 7.33333 24 7.33333C26.3056 7.33333 28.4722 7.77777 30.5 8.66666C32.5278 9.52777 34.2917 10.7083 35.7917 12.2083C37.2917 13.7083 38.4722 15.4722 39.3333 17.5C40.2222 19.5278 40.6667 21.6944 40.6667 24C40.6667 26.3055 40.2222 28.4722 39.3333 30.5C38.4722 32.5278 37.2917 34.2917 35.7917 35.7917C34.2917 37.2917 32.5278 38.4861 30.5 39.375C28.4722 40.2361 26.3056 40.6667 24 40.6667ZM24 37.3333C27.7222 37.3333 30.875 36.0417 33.4583 33.4583C36.0417 30.875 37.3333 27.7222 37.3333 24C37.3333 20.2778 36.0417 17.125 33.4583 14.5417C30.875 11.9583 27.7222 10.6667 24 10.6667C20.2778 10.6667 17.125 11.9583 14.5417 14.5417C11.9583 17.125 10.6667 20.2778 10.6667 24C10.6667 27.7222 11.9583 30.875 14.5417 33.4583C17.125 36.0417 20.2778 37.3333 24 37.3333Z" fill="#1D1B20"/>
</g>
</svg>
