<svg width="50" height="50" viewBox="0 0 50 50" fill="none" xmlns="http://www.w3.org/2000/svg">
<g id="config_button" opacity="0.5">
<rect width="50" height="50" fill="#919191" fill-opacity="0.5"/>
<rect x="0.5" y="0.5" width="49" height="49" stroke="black" stroke-opacity="0.4"/>
<path id="Vector" d="M20.9167 41.6667L20.1388 36.3887C19.6665 36.2129 19.1828 35.9815 18.6875 35.6946C18.1922 35.4074 17.7454 35.1064 17.3471 34.7917L12.4167 36.9862L8.30542 29.7917L12.7363 26.5137C12.6899 26.2824 12.6621 26.0301 12.6529 25.7571C12.6435 25.4837 12.6388 25.2314 12.6388 25C12.6388 24.7686 12.6435 24.5162 12.6529 24.2429C12.6621 23.9699 12.6899 23.7176 12.7363 23.4862L8.30542 20.2083L12.4167 13.0137L17.3471 15.2083C17.7454 14.8936 18.1946 14.5926 18.6946 14.3054C19.1946 14.0185 19.676 13.7962 20.1388 13.6387L20.9167 8.33333H29.0833L29.8613 13.6112C30.3335 13.7871 30.8218 14.0139 31.3263 14.2917C31.831 14.5694 32.2732 14.875 32.6529 15.2083L37.5833 13.0137L41.6946 20.2083L37.2638 23.4304C37.3101 23.6804 37.3379 23.9421 37.3471 24.2154C37.3565 24.4885 37.3613 24.75 37.3613 25C37.3613 25.25 37.3565 25.5069 37.3471 25.7708C37.3379 26.0347 37.3056 26.2917 37.25 26.5417L41.6804 29.7917L37.5696 36.9862L32.6529 34.7917C32.2546 35.1064 31.8101 35.4119 31.3196 35.7083C30.8288 36.0047 30.3426 36.2315 29.8613 36.3887L29.0833 41.6667H20.9167ZM23.2221 38.8888H26.7638L27.3471 34.3054C28.2454 34.0832 29.0904 33.7429 29.8821 33.2846C30.6738 32.8262 31.3936 32.2731 32.0417 31.625L36.3613 33.4721L38.0138 30.5279L34.2083 27.7083C34.3286 27.2639 34.4213 26.8171 34.4863 26.3679C34.551 25.919 34.5833 25.4631 34.5833 25C34.5833 24.5369 34.5556 24.081 34.5 23.6321C34.4445 23.1829 34.3472 22.7361 34.2083 22.2917L38.0138 19.4721L36.3613 16.5279L32.0417 18.3887C31.4119 17.6943 30.706 17.1133 29.9238 16.6458C29.1413 16.1783 28.2824 15.8612 27.3471 15.6946L26.7779 11.1112H23.2363L22.6529 15.6946C21.7363 15.8982 20.8821 16.2292 20.0904 16.6875C19.2988 17.1458 18.5881 17.7083 17.9583 18.375L13.6388 16.5279L11.9863 19.4721L15.7917 22.2779C15.6714 22.7315 15.5788 23.1806 15.5138 23.625C15.449 24.0694 15.4167 24.5278 15.4167 25C15.4167 25.4631 15.449 25.9168 15.5138 26.3612C15.5788 26.8057 15.6714 27.2547 15.7917 27.7083L11.9863 30.5279L13.6388 33.4721L17.9583 31.6112C18.6064 32.2685 19.3263 32.8262 20.1179 33.2846C20.9096 33.7429 21.7546 34.0832 22.6529 34.3054L23.2221 38.8888ZM25.0279 30.5554C26.5649 30.5554 27.875 30.0137 28.9583 28.9304C30.0417 27.8471 30.5833 26.5369 30.5833 25C30.5833 23.4631 30.0417 22.1529 28.9583 21.0696C27.875 19.9862 26.5649 19.4446 25.0279 19.4446C23.4815 19.4446 22.169 19.9862 21.0904 21.0696C20.0115 22.1529 19.4721 23.4631 19.4721 25C19.4721 26.5369 20.0115 27.8471 21.0904 28.9304C22.169 30.0137 23.4815 30.5554 25.0279 30.5554Z" fill="black"/>
</g>
</svg>
