<svg width="50" height="50" viewBox="0 0 50 50" fill="none" xmlns="http://www.w3.org/2000/svg">
<g id="delete_bttn">
<rect width="50" height="50" rx="25" fill="#FF5E5E" fill-opacity="0.7"/>
<rect x="0.5" y="0.5" width="49" height="49" rx="24.5" stroke="black" stroke-opacity="0.4"/>
<path id="Vector" d="M19.0625 34.4099L25 28.4026L30.9724 34.4099L33.5766 31.7708L27.6391 25.7641L33.5766 19.7568L30.9724 17.1182L25 23.125L19.0625 17.1182L16.4234 19.7568L22.3958 25.7641L16.4234 31.7708L19.0625 34.4099ZM13.9234 43.75C12.9859 43.75 12.1729 43.4057 11.4844 42.7172C10.7958 42.0283 10.4516 41.2151 10.4516 40.2776V11.4583H8.33334V7.98594H18.3333V6.25H31.6667V7.98594H41.6667V11.4583H39.5485V40.2776C39.5485 41.2151 39.2042 42.0283 38.5156 42.7172C37.8271 43.4057 37.0141 43.75 36.0766 43.75H13.9234ZM36.0766 11.4583H13.9234V40.2776H36.0766V11.4583Z" fill="#302E2E"/>
</g>
</svg>
