<svg width="40" height="40" viewBox="0 0 40 40" fill="none" xmlns="http://www.w3.org/2000/svg">
<g id="edit_user">
<path id="Vector" d="M6.66666 33.3333V29.1667C6.66666 28.1481 6.9236 27.2568 7.43749 26.4929C7.95138 25.729 8.62041 25.1481 9.44457 24.75C11.2593 23.9075 13.0324 23.2756 14.7637 22.8542C16.4954 22.4328 18.2408 22.2221 20 22.2221C21.0467 22.2221 22.0792 22.2985 23.0975 22.4512C24.1158 22.604 25.1435 22.8286 26.1804 23.125L23.9167 25.375C23.25 25.2547 22.5982 25.1621 21.9612 25.0971C21.3243 25.0324 20.6705 25 20 25C18.4258 25 16.8842 25.169 15.375 25.5071C13.8658 25.8449 12.2779 26.4258 10.6112 27.25C10.2685 27.4258 9.98832 27.6897 9.77082 28.0417C9.55332 28.3936 9.44457 28.7686 9.44457 29.1667V30.5554H20.5554V33.3333H6.66666ZM23.3333 35V29.875L32.5417 20.7083C32.7917 20.4583 33.0694 20.2778 33.375 20.1667C33.6805 20.0556 33.9861 20 34.2917 20C34.625 20 34.9444 20.0625 35.25 20.1875C35.5555 20.3125 35.8333 20.5 36.0833 20.75L37.625 22.2917C37.8658 22.5417 38.044 22.8194 38.1596 23.125C38.2754 23.4306 38.3333 23.7361 38.3333 24.0417C38.3333 24.3472 38.2732 24.6597 38.1529 24.9792C38.0324 25.2986 37.8479 25.5833 37.5996 25.8333L28.4583 35H23.3333ZM25.8333 32.5H27.4167L32.4583 27.4167L31.7083 26.625L30.9167 25.875L25.8333 30.9167V32.5ZM31.7083 26.625L30.9167 25.875L32.4583 27.4167L31.7083 26.625ZM20 19.9721C18.2222 19.9721 16.7129 19.3518 15.4721 18.1112C14.2315 16.8704 13.6112 15.3611 13.6112 13.5833C13.6112 11.8056 14.2315 10.2962 15.4721 9.05541C16.7129 7.81486 18.2222 7.19458 20 7.19458C21.7778 7.19458 23.2871 7.81486 24.5279 9.05541C25.7685 10.2962 26.3887 11.8056 26.3887 13.5833C26.3887 15.3611 25.7685 16.8704 24.5279 18.1112C23.2871 19.3518 21.7778 19.9721 20 19.9721ZM20 17.1946C21.0092 17.1946 21.8633 16.845 22.5625 16.1458C23.2617 15.4467 23.6112 14.5925 23.6112 13.5833C23.6112 12.5742 23.2617 11.72 22.5625 11.0208C21.8633 10.3217 21.0092 9.97208 20 9.97208C18.9908 9.97208 18.1367 10.3217 17.4375 11.0208C16.7383 11.72 16.3887 12.5742 16.3887 13.5833C16.3887 14.5925 16.7383 15.4467 17.4375 16.1458C18.1367 16.845 18.9908 17.1946 20 17.1946Z" fill="#5F6368"/>
</g>
</svg>
