<svg width="48" height="48" viewBox="0 0 48 48" fill="none" xmlns="http://www.w3.org/2000/svg">
<g id="refresh_button">
<rect width="48" height="48" fill="#57FB88"/>
<rect x="0.5" y="0.5" width="47" height="47" stroke="black" stroke-opacity="0.4"/>
<path id="Icon" d="M42.3333 10.6667V20.6667M42.3333 20.6667H32.3333M42.3333 20.6667L34.6 13.4C32.8087 11.6078 30.5927 10.2987 28.1586 9.59462C25.7246 8.89056 23.1518 8.81458 20.6805 9.37376C18.2091 9.93294 15.9197 11.109 14.0258 12.7924C12.1319 14.4757 10.6953 16.6113 9.84999 19M5.66666 37.3333V27.3333M5.66666 27.3333H15.6667M5.66666 27.3333L13.4 34.6C15.1912 36.3921 17.4073 37.7013 19.8413 38.4054C22.2754 39.1094 24.8481 39.1854 27.3195 38.6262C29.7909 38.0671 32.0803 36.8909 33.9742 35.2076C35.8681 33.5243 37.3047 31.3887 38.15 29" stroke="#1E1E1E" stroke-width="2" stroke-linecap="round" stroke-linejoin="round"/>
</g>
</svg>
