<svg width="56" height="56" viewBox="0 0 56 56" fill="none" xmlns="http://www.w3.org/2000/svg">
<g id="adicionar_button">
<rect width="56" height="56" rx="12" fill="#57FB88"/>
<rect x="0.5" y="0.5" width="55" height="55" rx="11.5" stroke="black" stroke-opacity="0.4"/>
<path id="icon" d="M26.0556 37.7222H29.9445V29.9444H37.7222V26.0555H29.9445V18.2778H26.0556V26.0555H18.2778V29.9444H26.0556V37.7222ZM28 47.4444C25.3102 47.4444 22.7824 46.9421 20.4167 45.9375C18.0509 44.9004 15.9931 43.5069 14.2431 41.7569C12.4931 40.0069 11.0996 37.9491 10.0625 35.5833C9.05789 33.2176 8.55557 30.6898 8.55557 28C8.55557 25.3102 9.05789 22.7824 10.0625 20.4167C11.0996 18.0509 12.4931 15.993 14.2431 14.243C15.9931 12.493 18.0509 11.1157 20.4167 10.1111C22.7824 9.07406 25.3102 8.55554 28 8.55554C30.6898 8.55554 33.2176 9.07406 35.5834 10.1111C37.9491 11.1157 40.007 12.493 41.757 14.243C43.507 15.993 44.8843 18.0509 45.8889 20.4167C46.9259 22.7824 47.4445 25.3102 47.4445 28C47.4445 30.6898 46.9259 33.2176 45.8889 35.5833C44.8843 37.9491 43.507 40.0069 41.757 41.7569C40.007 43.5069 37.9491 44.9004 35.5834 45.9375C33.2176 46.9421 30.6898 47.4444 28 47.4444ZM28 43.5555C32.3426 43.5555 36.0209 42.0486 39.0347 39.0347C42.0486 36.0208 43.5556 32.3426 43.5556 28C43.5556 23.6574 42.0486 19.9792 39.0347 16.9653C36.0209 13.9514 32.3426 12.4444 28 12.4444C23.6574 12.4444 19.9792 13.9514 16.9653 16.9653C13.9514 19.9792 12.4445 23.6574 12.4445 28C12.4445 32.3426 13.9514 36.0208 16.9653 39.0347C19.9792 42.0486 23.6574 43.5555 28 43.5555Z" fill="#1D1B20"/>
</g>
</svg>
