<svg width="56" height="56" viewBox="0 0 56 56" fill="none" xmlns="http://www.w3.org/2000/svg">
<g id="delete_bttn">
<rect width="56" height="56" rx="28" fill="#FF5E5E" fill-opacity="0.7"/>
<rect x="0.5" y="0.5" width="55" height="55" rx="27.5" stroke="black" stroke-opacity="0.4"/>
<path id="Vector" d="M21.35 38.5391L28 31.8109L34.6891 38.5391L37.6058 35.5833L30.9558 28.8558L37.6058 22.1276L34.6891 19.1724L28 25.9L21.35 19.1724L18.3943 22.1276L25.0833 28.8558L18.3943 35.5833L21.35 38.5391ZM15.5943 49C14.5443 49 13.6337 48.6144 12.8625 47.8433C12.0913 47.0717 11.7058 46.1609 11.7058 45.1109V12.8333H9.33334V8.94425H20.5333V7H35.4667V8.94425H46.6667V12.8333H44.2943V45.1109C44.2943 46.1609 43.9087 47.0717 43.1375 47.8433C42.3663 48.6144 41.4558 49 40.4058 49H15.5943ZM40.4058 12.8333H15.5943V45.1109H40.4058V12.8333Z" fill="#302E2E"/>
</g>
</svg>
