<svg width="160" height="160" viewBox="0 0 160 160" fill="none" xmlns="http://www.w3.org/2000/svg">
<rect width="160" height="160" rx="35" fill="#57FB88"/>
<rect x="0.5" y="0.5" width="159" height="159" rx="34.5" stroke="black" stroke-opacity="0.4"/>
<path d="M43.1818 57.4545H48.8182V88.2727C48.8182 91.4545 48.0682 94.2955 46.5682 96.7955C45.0833 99.2803 42.9849 101.242 40.2727 102.682C37.5606 104.106 34.3788 104.818 30.7273 104.818C27.0758 104.818 23.8939 104.106 21.1818 102.682C18.4697 101.242 16.3636 99.2803 14.8636 96.7955C13.3788 94.2955 12.6364 91.4545 12.6364 88.2727V57.4545H18.2727V87.8182C18.2727 90.0909 18.7727 92.1136 19.7727 93.8864C20.7727 95.6439 22.197 97.0303 24.0455 98.0455C25.9091 99.0455 28.1364 99.5455 30.7273 99.5455C33.3182 99.5455 35.5455 99.0455 37.4091 98.0455C39.2727 97.0303 40.697 95.6439 41.6818 93.8864C42.6818 92.1136 43.1818 90.0909 43.1818 87.8182V57.4545ZM60.0739 57.4545H66.8011L82.6193 96.0909H83.1648L98.983 57.4545H105.71V104H100.438V68.6364H99.983L85.4375 104H80.3466L65.8011 68.6364H65.3466V104H60.0739V57.4545ZM142.466 69.0909C142.193 66.7879 141.087 65 139.148 63.7273C137.208 62.4545 134.83 61.8182 132.011 61.8182C129.951 61.8182 128.148 62.1515 126.602 62.8182C125.072 63.4848 123.875 64.4015 123.011 65.5682C122.163 66.7348 121.739 68.0606 121.739 69.5455C121.739 70.7879 122.034 71.8561 122.625 72.75C123.231 73.6288 124.004 74.3636 124.943 74.9545C125.883 75.5303 126.867 76.0076 127.898 76.3864C128.928 76.75 129.875 77.0455 130.739 77.2727L135.466 78.5455C136.678 78.8636 138.027 79.303 139.511 79.8636C141.011 80.4242 142.443 81.1894 143.807 82.1591C145.186 83.1136 146.322 84.3409 147.216 85.8409C148.11 87.3409 148.557 89.1818 148.557 91.3636C148.557 93.8788 147.898 96.1515 146.58 98.1818C145.277 100.212 143.367 101.826 140.852 103.023C138.352 104.22 135.314 104.818 131.739 104.818C128.405 104.818 125.519 104.28 123.08 103.205C120.655 102.129 118.746 100.629 117.352 98.7045C115.973 96.7803 115.193 94.5455 115.011 92H120.83C120.981 93.7576 121.572 95.2121 122.602 96.3636C123.648 97.5 124.966 98.3485 126.557 98.9091C128.163 99.4545 129.89 99.7273 131.739 99.7273C133.89 99.7273 135.822 99.3788 137.534 98.6818C139.246 97.9697 140.602 96.9848 141.602 95.7273C142.602 94.4545 143.102 92.9697 143.102 91.2727C143.102 89.7273 142.67 88.4697 141.807 87.5C140.943 86.5303 139.807 85.7424 138.398 85.1364C136.989 84.5303 135.466 84 133.83 83.5455L128.102 81.9091C124.466 80.8636 121.587 79.3712 119.466 77.4318C117.345 75.4924 116.284 72.9545 116.284 69.8182C116.284 67.2121 116.989 64.9394 118.398 63C119.822 61.0455 121.731 59.5303 124.125 58.4545C126.534 57.3636 129.223 56.8182 132.193 56.8182C135.193 56.8182 137.86 57.3561 140.193 58.4318C142.527 59.4924 144.375 60.947 145.739 62.7955C147.117 64.6439 147.845 66.7424 147.92 69.0909H142.466Z" fill="black"/>
</svg>
