<svg width="56" height="56" viewBox="0 0 56 56" fill="none" xmlns="http://www.w3.org/2000/svg">
<g id="search_bttn" opacity="0.5">
<rect width="56" height="56" rx="12" fill="#919191" fill-opacity="0.5"/>
<rect x="0.5" y="0.5" width="55" height="55" rx="11.5" stroke="black" stroke-opacity="0.4"/>
<path id="Vector" d="M42.56 44.7687L30.4579 32.6667C29.5246 33.4547 28.4413 34.0718 27.2081 34.5179C25.9748 34.9638 24.6626 35.1867 23.2713 35.1867C19.8976 35.1867 17.0422 34.0174 14.7051 31.6787C12.3684 29.3404 11.2 26.5068 11.2 23.1779C11.2 19.849 12.3693 17.0153 14.7079 14.6767C17.0463 12.338 19.8851 11.1687 23.2246 11.1687C26.5638 11.1687 29.3974 12.338 31.7254 14.6767C34.0538 17.0153 35.2179 19.8506 35.2179 23.1826C35.2179 24.5275 35.0002 25.8171 34.5646 27.0513C34.1291 28.2851 33.4964 29.4207 32.6667 30.4579L44.8 42.5287L42.56 44.7687ZM23.24 32.0754C25.7031 32.0754 27.7965 31.2069 29.5204 29.47C31.2446 27.7331 32.1067 25.6357 32.1067 23.1779C32.1067 20.7202 31.2446 18.6226 29.5204 16.8854C27.7965 15.1485 25.7031 14.28 23.24 14.28C20.7598 14.28 18.6516 15.1485 16.9153 16.8854C15.1793 18.6226 14.3113 20.7202 14.3113 23.1779C14.3113 25.6357 15.1793 27.7331 16.9153 29.47C18.6516 31.2069 20.7598 32.0754 23.24 32.0754Z" fill="black"/>
</g>
</svg>
